<svg width="302" height="42" viewBox="0 0 302 42" fill="none" xmlns="http://www.w3.org/2000/svg">
<path d="M134.017 41.2715H5.25168C2.41888 41.2715 0.101074 38.9499 0.101074 36.1125V5.15895C0.101074 2.32152 2.41883 0 5.25168 0H134.017C136.85 0 139.167 2.32152 139.167 5.15895V36.1125C139.167 38.9499 136.85 41.2715 134.017 41.2715" fill="black"/>
<path d="M134.017 0H5.25168C2.41888 0 0.101074 2.32152 0.101074 5.15895V36.1125C0.101074 38.9499 2.41883 41.2715 5.25168 41.2715H134.017C136.85 41.2715 139.167 38.9499 139.167 36.1125V5.15895C139.167 2.32152 136.85 0 134.017 0H134.017ZM134.017 0.825403C136.402 0.825403 138.343 2.76974 138.343 5.15895V36.1125C138.343 38.5022 136.402 40.4465 134.017 40.4465H5.25168C2.86636 40.4465 0.925179 38.5021 0.925179 36.1125V5.15895C0.925179 2.76974 2.86631 0.825449 5.25168 0.825449H134.017" fill="#A6A6A6"/>
<path d="M48.9477 10.5689C48.9477 11.4334 48.6921 12.1218 48.1802 12.6353C47.5988 13.2459 46.841 13.5514 45.9095 13.5514C45.0174 13.5514 44.2589 13.2419 43.6352 12.622C43.0103 12.0025 42.6985 11.2343 42.6985 10.3178C42.6985 9.40085 43.0103 8.63313 43.6352 8.01315C44.2589 7.39373 45.0174 7.08374 45.9095 7.08374C46.3521 7.08374 46.7759 7.17045 47.1783 7.34337C47.5807 7.51671 47.9034 7.7468 48.1448 8.03495L47.6016 8.57943C47.1924 8.08976 46.629 7.8451 45.9095 7.8451C45.2589 7.8451 44.6963 8.07408 44.2215 8.53232C43.7467 8.99102 43.5093 9.58587 43.5093 10.3178C43.5093 11.0498 43.7467 11.6446 44.2215 12.1033C44.6963 12.5615 45.2589 12.7905 45.9095 12.7905C46.5997 12.7905 47.1751 12.5603 47.6358 12.0993C47.9348 11.7989 48.1078 11.3814 48.154 10.8454H45.9094V10.1017H48.9045C48.9335 10.2634 48.9476 10.4186 48.9476 10.5689" fill="white"/>
<path d="M48.9476 10.5691H48.8446C48.8438 11.4138 48.5974 12.0699 48.1073 12.5625L48.1062 12.5633L48.1058 12.5641C47.5428 13.1537 46.8192 13.4471 45.9094 13.4484C45.0412 13.4471 44.3144 13.1505 43.7075 12.5492C43.102 11.9466 42.8026 11.211 42.8015 10.3179C42.8026 9.42442 43.102 8.68925 43.7075 8.08713C44.3144 7.48537 45.0412 7.18832 45.9094 7.18706C46.3388 7.18706 46.7477 7.271 47.1376 7.43821C47.5279 7.60672 47.8362 7.82754 48.0659 8.10169L48.1448 8.0351L48.072 7.96216L47.5287 8.50701L47.6015 8.57958L47.6808 8.51355C47.2526 7.99962 46.6515 7.74055 45.9095 7.74208C45.2347 7.74124 44.6412 7.98274 44.1502 8.45837C43.6545 8.93553 43.4054 9.56385 43.4063 10.3179C43.4054 11.0721 43.6545 11.7003 44.1502 12.1776C44.6412 12.6532 45.2347 12.8946 45.9094 12.8938C46.6225 12.8951 47.2302 12.6528 47.7086 12.1724C48.0281 11.8515 48.2092 11.407 48.2567 10.8544L48.2663 10.7423H46.0125V10.2051H48.9045V10.1019L48.8031 10.12C48.8313 10.2765 48.8446 10.4251 48.8446 10.5691H49.0506C49.0506 10.4123 49.0361 10.2511 49.0059 10.0834L48.9906 9.99872H45.8065V10.9487H48.154V10.8455L48.0514 10.8366C48.006 11.3558 47.841 11.7468 47.5629 12.0265C47.1203 12.4682 46.5771 12.6862 45.9095 12.6874C45.283 12.6866 44.7514 12.4706 44.2931 12.0293C43.8392 11.5895 43.6135 11.0281 43.6123 10.3179C43.6135 9.60777 43.8392 9.04636 44.2931 8.60662C44.7514 8.16531 45.2829 7.94926 45.9095 7.94843C46.6061 7.9501 47.132 8.18061 47.5228 8.64613L47.5952 8.73238L48.2177 8.10808L48.2844 8.04122L48.2237 7.96897C47.9706 7.66677 47.6334 7.4269 47.2189 7.24883C46.8036 7.07021 46.3654 6.98071 45.9095 6.98071C44.9937 6.97993 44.2034 7.30234 43.5624 7.94041C42.919 8.57722 42.5946 9.37768 42.5955 10.3179C42.5946 11.2578 42.919 12.0587 43.5628 12.6959C44.2034 13.3335 44.9937 13.6556 45.9095 13.6547C46.8632 13.6556 47.6543 13.3383 48.2547 12.7067L48.1802 12.6354L48.253 12.7084C48.7866 12.1744 49.0513 11.4529 49.0506 10.5691H48.9476H48.9476ZM53.6958 7.98312H50.881V9.946H53.4194V10.6899H50.881V12.6528H53.6958V13.4133H50.0875V7.22259H53.6958V7.98312Z" fill="white"/>
<path d="M53.6955 7.98309V7.87991H50.7778V10.0491H53.3161V10.5864L50.7777 10.5867V12.7559H53.5924V13.3101H50.1903V7.32574H53.5924V7.98309H53.6955V7.87991V7.98309H53.7985V7.11938H49.9843V13.5164H53.7985V12.5496H50.9837V10.793H53.5221V9.8428H50.9837V8.08627H53.7985V7.98309H53.6955ZM57.0446 13.4133H56.2499V7.98304H54.5236V7.22251H58.7709V7.98304H57.0446V13.4132" fill="white"/>
<path d="M57.0448 13.4133V13.3101H56.3531V7.87991H54.6269V7.32578H58.6681V7.87991H56.9418V13.4133H57.0448V13.3101V13.4133H57.1479V8.08627H58.8741V7.11938H54.4208V8.08622H56.1471V13.5164H57.1479V13.4132H57.0448V13.4133ZM61.8442 13.4133V7.22251H62.6381V13.4132H61.8442" fill="white"/>
<path d="M61.8443 13.4133H61.9474V7.32574H62.5352V13.3101H61.8443V13.4133H61.9474H61.8443V13.5164H62.7412V7.11938H61.7413V13.5164H61.8443V13.4133V13.4133ZM66.1611 13.4133H65.3664V7.98304H63.6402V7.22251H67.8874V7.98304H66.1611V13.4132" fill="white"/>
<path d="M66.1611 13.4132V13.31H65.4694V7.87979H63.7432V7.32566H67.7843V7.87979H66.0581V13.4131H66.1611V13.31V13.4131H66.2641V8.08614H67.9904V7.11926H63.5372V8.08609H65.2633V13.5163H66.2641V13.4131H66.1611V13.4132ZM71.9821 12.0949C72.4396 12.5587 72.9993 12.7904 73.6613 12.7904C74.3232 12.7904 74.8833 12.5587 75.3401 12.0949C75.798 11.631 76.0274 11.038 76.0274 10.3178C76.0274 9.59765 75.798 9.00466 75.3401 8.54076C74.8833 8.07687 74.3232 7.8451 73.6613 7.8451C72.9993 7.8451 72.4396 8.07687 71.9821 8.54076C71.5254 9.00466 71.2961 9.5976 71.2961 10.3178C71.2961 11.038 71.5254 11.631 71.9821 12.0949ZM75.9275 12.6131C75.3199 13.239 74.5642 13.5514 73.6613 13.5514C72.7575 13.5514 72.0021 13.239 71.3958 12.6131C70.7878 11.9879 70.4852 11.2227 70.4852 10.3178C70.4852 9.41291 70.7878 8.64751 71.3958 8.02247C72.0022 7.39647 72.7575 7.08374 73.6613 7.08374C74.5595 7.08374 75.3131 7.39814 75.9235 8.02651C76.5331 8.65483 76.8382 9.41856 76.8382 10.3178C76.8382 11.2227 76.5339 11.9879 75.9275 12.6131Z" fill="white"/>
<path d="M71.9822 12.095L71.9089 12.1675C72.3834 12.65 72.9753 12.8951 73.6613 12.8938C74.347 12.8951 74.9397 12.65 75.4134 12.1675C75.8909 11.6846 76.1311 11.0599 76.1304 10.3179C76.1311 9.57601 75.8909 8.95125 75.4134 8.46834C74.9397 7.9859 74.347 7.74087 73.6613 7.74208C72.9753 7.74087 72.3834 7.9859 71.9089 8.46834C71.4325 8.95125 71.1918 9.57601 71.1931 10.3179C71.1918 11.0599 71.4325 11.6846 71.9089 12.1675L71.9822 12.095L72.0554 12.0224C71.6184 11.5771 71.3999 11.0168 71.3991 10.3179C71.3999 9.61913 71.6184 9.05888 72.0554 8.61344C72.4964 8.16814 73.0231 7.94968 73.6613 7.94848C74.2991 7.94968 74.827 8.16814 75.2669 8.61344C75.7047 9.05888 75.9232 9.61913 75.924 10.3179C75.9232 11.0168 75.7047 11.5771 75.2669 12.0224C74.827 12.4678 74.2991 12.6862 73.6613 12.6874C73.0231 12.6862 72.4964 12.4678 72.0554 12.0224L71.9822 12.095ZM75.9276 12.6133L75.8539 12.5416C75.2633 13.1477 74.541 13.4472 73.6613 13.4484C72.7813 13.4471 72.059 13.1477 71.4694 12.5416L71.4667 12.5383L71.4694 12.5416C70.88 11.9333 70.5891 11.1998 70.5883 10.3179C70.5891 9.43606 70.88 8.70256 71.4694 8.09436C72.059 7.48815 72.7813 7.18832 73.6613 7.18711C74.5353 7.18832 75.2559 7.4894 75.8499 8.09877C76.4414 8.7098 76.734 9.44213 76.7352 10.3179C76.734 11.1998 76.4423 11.9333 75.8539 12.5416L75.9276 12.6133L76.0017 12.6849C76.6261 12.0426 76.9419 11.2457 76.9413 10.3179C76.942 9.39544 76.6249 8.60022 75.9976 7.95497C75.3699 7.30717 74.5836 6.9796 73.6613 6.98072C72.7342 6.9796 71.9456 7.30564 71.3218 7.95094V7.95047C70.6961 8.59331 70.3814 9.39015 70.3823 10.3179C70.3814 11.2457 70.6961 12.0426 71.3218 12.6854L71.3246 12.6883L71.3218 12.6849C71.9456 13.3302 72.7342 13.6556 73.6613 13.6547C74.588 13.6556 75.3767 13.3302 76.0017 12.6849L75.9276 12.6133ZM77.9528 13.4133V7.22254H78.9194L81.9232 12.0385H81.9574L81.9232 10.8455V7.22254H82.718V13.4132H81.889L78.7463 8.36391H78.7121L78.7463 9.55736V13.4132H77.9528" fill="white"/>
<path d="M77.9527 13.4133H78.0557V7.32574H78.8621L81.8659 12.1417H82.0631L82.0261 10.8439V7.32578H82.6148V13.3101H81.946L78.8034 8.26076H78.6062L78.6432 9.55905V13.3101H77.9527V13.4133H78.0557H77.9527V13.5164H78.8492V9.55576L78.815 8.36115L78.712 8.36394V8.46711H78.7462V8.36394L78.6588 8.41879L81.8317 13.5164H82.8208V7.11938H81.8201V10.8467L81.8543 12.0413L81.9573 12.0385V11.9353H81.9231V12.0385L82.0104 11.9837L78.9763 7.11938H77.8497V13.5164H77.9528V13.4133L77.9527 13.4133ZM110.258 30.9536H112.18V18.0551H110.258L110.258 30.9536ZM127.571 22.7015L125.368 28.2936H125.302L123.015 22.7014H120.944L124.374 30.5175L122.418 34.8652H124.424L129.709 22.7014L127.571 22.7015ZM116.67 29.4886C116.04 29.4886 115.162 29.1734 115.162 28.3932C115.162 27.3976 116.256 27.016 117.2 27.016C118.046 27.016 118.442 27.1985 118.956 27.4477C118.807 28.6422 117.78 29.4886 116.67 29.4886ZM116.902 22.4193C115.51 22.4193 114.069 23.0334 113.473 24.3942L115.179 25.1076C115.543 24.3942 116.222 24.1616 116.935 24.1616C117.929 24.1616 118.94 24.7593 118.956 25.8213V25.954C118.608 25.7548 117.863 25.4562 116.952 25.4562C115.113 25.4562 113.24 26.4682 113.24 28.3601C113.24 30.0859 114.748 31.1979 116.438 31.1979C117.73 31.1979 118.442 30.6171 118.89 29.9368H118.956V30.9323H120.811V25.9869C120.811 23.6973 119.106 22.4193 116.902 22.4193ZM105.023 24.2716H102.289V19.8503H105.023C106.46 19.8503 107.276 21.042 107.276 22.0609C107.276 23.0605 106.46 24.2716 105.023 24.2716ZM104.973 18.0551H100.368V30.9536H102.289V26.0668H104.973C107.104 26.0668 109.198 24.5219 109.198 22.0609C109.198 19.6 107.104 18.0551 104.973 18.0551ZM79.858 29.491C78.5301 29.491 77.4183 28.3774 77.4183 26.8479C77.4183 25.3023 78.5301 24.1717 79.858 24.1717C81.169 24.1717 82.1979 25.3022 82.1979 26.8479C82.1979 28.3774 81.169 29.491 79.858 29.491H79.858ZM82.0651 23.4237H81.9987C81.5674 22.9085 80.7372 22.4431 79.6919 22.4431C77.5012 22.4431 75.4933 24.3712 75.4933 26.8479C75.4933 29.3081 77.5011 31.2197 79.6919 31.2197C80.7372 31.2197 81.5674 30.7541 81.9987 30.2225H82.0651V30.8541C82.0651 32.5332 81.169 33.4308 79.7252 33.4308C78.547 33.4308 77.8167 32.5827 77.5177 31.8681L75.8418 32.5662C76.3231 33.7298 77.601 35.1594 79.7252 35.1594C81.9822 35.1594 83.8907 33.8293 83.8907 30.5881V22.7091H82.0651V23.4237ZM85.2183 30.9536H87.1433V18.0546H85.2183V30.9536ZM89.9813 26.6984C89.9314 25.0027 91.2923 24.1386 92.2714 24.1386C93.0353 24.1386 93.6822 24.5207 93.8975 25.0697L89.9813 26.6984ZM95.9557 25.2357C95.591 24.2547 94.4785 22.4431 92.2049 22.4431C89.948 22.4431 88.0728 24.2216 88.0728 26.8314C88.0728 29.2916 89.9314 31.2197 92.4206 31.2197C94.4291 31.2197 95.591 29.9895 96.0721 29.2749L94.5784 28.2774C94.0809 29.0089 93.4 29.491 92.4206 29.491C91.4416 29.491 90.7447 29.042 90.2964 28.1613L96.1545 25.7343L95.9557 25.2357ZM49.2828 23.7896V25.6512H53.7303C53.5976 26.6984 53.249 27.4629 52.7179 27.9949C52.0709 28.6434 51.0585 29.358 49.2828 29.358C46.5444 29.358 44.4037 27.1473 44.4037 24.4046C44.4037 21.6619 46.5444 19.4509 49.2828 19.4509C50.7599 19.4509 51.8383 20.0328 52.635 20.7808L53.946 19.4678C52.8343 18.4037 51.3571 17.5893 49.2828 17.5893C45.532 17.5893 42.3789 20.6479 42.3789 24.4046C42.3789 28.1613 45.532 31.2197 49.2828 31.2197C51.3076 31.2197 52.8343 30.5551 54.029 29.3081C55.2571 28.0779 55.639 26.3493 55.639 24.9532C55.639 24.5207 55.6059 24.1221 55.5391 23.7896H49.2828ZM60.6954 29.491C59.3675 29.491 58.2223 28.3939 58.2223 26.8314C58.2223 25.2522 59.3675 24.1717 60.6954 24.1717C62.0228 24.1717 63.168 25.2522 63.168 26.8314C63.168 28.3939 62.0228 29.491 60.6954 29.491ZM60.6954 22.4431C58.2721 22.4431 56.2972 24.2881 56.2972 26.8314C56.2972 29.358 58.2721 31.2197 60.6954 31.2197C63.1181 31.2197 65.0931 29.358 65.0931 26.8314C65.0931 24.2881 63.1181 22.4431 60.6954 22.4431ZM70.2891 29.491C68.9617 29.491 67.8164 28.3939 67.8164 26.8314C67.8164 25.2522 68.9617 24.1717 70.2891 24.1717C71.6166 24.1717 72.7618 25.2522 72.7618 26.8314C72.7618 28.3939 71.6166 29.491 70.2891 29.491H70.2891ZM70.2891 22.4431C67.866 22.4431 65.8914 24.2881 65.8914 26.8314C65.8914 29.358 67.866 31.2197 70.2891 31.2197C72.712 31.2197 74.6869 29.358 74.6869 26.8314C74.6869 24.2881 72.712 22.4431 70.2891 22.4431H70.2891Z" fill="white"/>
<path d="M10.9263 7.85337C10.5806 8.16577 10.3742 8.68684 10.3742 9.37851V9.22215V32.0464V31.8961C10.3742 32.5348 10.5512 33.0281 10.8509 33.3458L10.9275 33.4192V33.4195C11.1701 33.6388 11.4812 33.7552 11.8377 33.7548C12.1861 33.7548 12.5781 33.6436 12.9918 33.4087L27.9442 24.8992L33.0802 21.976C33.7325 21.6048 34.0987 21.126 34.1599 20.6383V20.6363C34.0987 20.1474 33.7325 19.669 33.0803 19.2978L27.9437 16.3749L12.9918 7.86543C12.5772 7.63009 12.185 7.51843 11.8357 7.51843C11.4796 7.51843 11.1689 7.6345 10.9263 7.85337H10.9263Z" fill="#00C1FF"/>
<path d="M10.9275 33.4191L10.8509 33.3457C10.5512 33.0281 10.3742 32.5347 10.3742 31.896V32.0463V9.22771V9.37841C10.3742 8.68675 10.5806 8.16568 10.9263 7.85328L23.6893 20.6366L10.9275 33.4191Z" fill="url(#paint0_linear_44_1194)"/>
<path d="M27.9437 24.8992L23.6888 20.6367L27.9434 16.3748L33.0798 19.2977C33.7321 19.6689 34.0983 20.1474 34.1595 20.6362V20.6382C34.0983 21.1259 33.7321 21.6048 33.0798 21.9759L27.9438 24.8991" fill="url(#paint1_linear_44_1194)"/>
<path d="M11.838 33.7546C11.4815 33.755 11.1704 33.6385 10.9278 33.4192V33.4189L23.6895 20.6364L27.9445 24.8989L12.992 33.4084C12.5783 33.6434 12.1863 33.7546 11.838 33.7546Z" fill="url(#paint2_linear_44_1194)"/>
<path d="M23.6894 20.6365L10.9264 7.85316C11.169 7.63429 11.4797 7.51822 11.8358 7.51822C12.1851 7.51822 12.5774 7.62984 12.9919 7.86522L27.9439 16.3747L23.6894 20.6365" fill="url(#paint3_linear_44_1194)"/>
<path d="M11.8381 33.906C11.4816 33.906 11.1701 33.7895 10.9275 33.5703L10.9271 33.5707C10.9261 33.5696 10.925 33.5687 10.9239 33.5679L10.8575 33.5029C10.8554 33.5009 10.8535 33.4985 10.851 33.4962L10.9275 33.4195C11.1701 33.6388 11.4812 33.7553 11.8378 33.7548C12.1861 33.7548 12.5781 33.6436 12.9918 33.4087L27.9442 24.8992L28.04 24.9952L27.943 25.0504L12.9917 33.5594C12.6147 33.7734 12.2561 33.885 11.9322 33.9036C11.9009 33.9052 11.8695 33.9059 11.8381 33.906" fill="url(#paint4_linear_44_1194)"/>
<path d="M10.8509 33.496C10.5512 33.1783 10.3742 32.6854 10.3742 32.0462V31.8959C10.3742 32.5347 10.5512 33.0279 10.8509 33.3456L10.9275 33.419L10.8509 33.496Z" fill="url(#paint5_linear_44_1194)"/>
<path d="M28.0395 24.9949L27.9437 24.899L33.0798 21.9757C33.7321 21.6046 34.0983 21.1258 34.1595 20.638C34.1595 20.817 34.1196 20.996 34.0404 21.1701C33.8806 21.5212 33.5604 21.8529 33.0798 22.1265L28.0395 24.995" fill="url(#paint6_linear_44_1194)"/>
<path d="M34.1593 20.6361C34.0981 20.1472 33.7319 19.6688 33.0797 19.2976L27.9432 16.3747L28.039 16.2787H28.0394L33.0797 19.1472C33.7988 19.5567 34.1589 20.0964 34.1593 20.6361Z" fill="url(#paint7_linear_44_1194)"/>
<path d="M10.3742 9.37842V9.22076C10.3742 9.16391 10.3757 9.10831 10.3787 9.05433V9.05187C10.3787 9.05113 10.3787 9.05034 10.3789 9.04951V9.04343C10.41 8.49324 10.5806 8.06408 10.8509 7.77751L10.9263 7.85323C10.5806 8.16568 10.3742 8.68675 10.3742 9.37842Z" fill="url(#paint8_linear_44_1194)"/>
<path d="M27.9435 16.375L12.9915 7.86547C12.577 7.63014 12.1847 7.51852 11.8354 7.51852C11.4793 7.51852 11.1686 7.63459 10.926 7.85346L10.8507 7.77769C10.8742 7.75275 10.8987 7.7287 10.924 7.70558C10.9248 7.70475 10.926 7.70391 10.9268 7.70312C11.1675 7.48592 11.4749 7.36985 11.8278 7.36777H11.8354C12.1847 7.36777 12.577 7.47943 12.9915 7.71486L28.0397 16.2787L28.0393 16.279L27.9435 16.375Z" fill="url(#paint9_linear_44_1194)"/>
<rect x="159.535" y="0.367378" width="141.492" height="41.2651" rx="3.3064" fill="black" stroke="#A6A6A6" stroke-width="0.734756"/>
<path d="M198.006 20.3175C197.983 17.5299 200.288 16.175 200.389 16.1128C199.081 14.2128 197.056 13.9481 196.348 13.9247C194.65 13.7456 192.999 14.9448 192.135 14.9448C191.255 14.9448 189.916 13.9481 188.483 13.9714C186.638 14.0026 184.901 15.0694 183.959 16.7357C182.005 20.1228 183.461 25.1062 185.337 27.8471C186.28 29.1864 187.37 30.6892 188.81 30.6347C190.212 30.5802 190.741 29.7392 192.431 29.7392C194.113 29.7392 194.603 30.6347 196.067 30.6035C197.578 30.5802 198.52 29.2565 199.431 27.9016C200.514 26.3677 200.95 24.8493 200.965 24.7714C200.926 24.7558 198.037 23.6501 198.006 20.3175Z" fill="white"/>
<path d="M195.243 12.1258C195.998 11.1836 196.512 9.89884 196.372 8.5907C195.282 8.63742 193.911 9.34599 193.125 10.2726C192.432 11.0902 191.809 12.4217 191.964 13.6753C193.195 13.7688 194.456 13.0524 195.243 12.1258Z" fill="white"/>
<path d="M218.345 30.4398H216.383L215.308 27.0605H211.571L210.55 30.4398H208.643L212.341 18.9391H214.631L218.345 30.4398ZM214.989 25.6433L214.015 22.6455C213.914 22.334 213.72 21.6177 213.439 20.4808H213.4C213.284 20.9714 213.104 21.6955 212.855 22.6455L211.898 25.6433H214.989Z" fill="white"/>
<path d="M227.852 26.196C227.852 27.6054 227.471 28.7189 226.7 29.5365C226.015 30.2684 225.158 30.6266 224.146 30.6266C223.048 30.6266 222.262 30.2373 221.779 29.4508V33.8035H219.933V24.8723C219.933 23.9846 219.91 23.0814 219.863 22.147H221.483L221.584 23.4629H221.615C222.23 22.474 223.165 21.9757 224.411 21.9757C225.392 21.9757 226.202 22.365 226.856 23.1359C227.525 23.9146 227.852 24.9268 227.852 26.196ZM225.976 26.2583C225.976 25.4485 225.797 24.7867 225.431 24.265C225.034 23.7199 224.496 23.4474 223.827 23.4474C223.375 23.4474 222.962 23.6031 222.589 23.899C222.223 24.2027 221.973 24.592 221.864 25.0825C221.81 25.3084 221.779 25.4952 221.779 25.6432V27.0292C221.779 27.6288 221.966 28.1427 222.332 28.5554C222.698 28.968 223.18 29.1783 223.772 29.1783C224.465 29.1783 225.002 28.9057 225.392 28.3763C225.781 27.839 225.976 27.1382 225.976 26.2583Z" fill="white"/>
<path d="M237.383 26.196C237.383 27.6054 237.001 28.7189 236.231 29.5365C235.545 30.2684 234.689 30.6266 233.677 30.6266C232.579 30.6266 231.792 30.2373 231.309 29.4508V33.8035H229.464V24.8723C229.464 23.9846 229.441 23.0814 229.394 22.147H231.014L231.115 23.4629H231.146C231.761 22.474 232.695 21.9757 233.941 21.9757C234.922 21.9757 235.732 22.365 236.386 23.1359C237.056 23.9146 237.383 24.9268 237.383 26.196ZM235.506 26.2583C235.506 25.4485 235.327 24.7867 234.961 24.265C234.564 23.7199 234.027 23.4474 233.357 23.4474C232.906 23.4474 232.493 23.6031 232.119 23.899C231.753 24.2027 231.512 24.592 231.395 25.0825C231.341 25.3084 231.309 25.4952 231.309 25.6432V27.0292C231.309 27.6288 231.496 28.1427 231.862 28.5554C232.228 28.968 232.711 29.1783 233.303 29.1783C233.996 29.1783 234.541 28.9057 234.922 28.3763C235.319 27.839 235.506 27.1382 235.506 26.2583Z" fill="white"/>
<path d="M248.05 27.2164C248.05 28.1975 247.708 28.9917 247.03 29.6069C246.283 30.2765 245.239 30.6113 243.9 30.6113C242.662 30.6113 241.673 30.3699 240.926 29.895L241.354 28.361C242.164 28.836 243.051 29.0774 244.017 29.0774C244.71 29.0774 245.255 28.9216 245.636 28.6102C246.026 28.2987 246.22 27.8782 246.22 27.3565C246.22 26.8894 246.057 26.5 245.745 26.1808C245.426 25.8615 244.897 25.5656 244.157 25.2931C242.125 24.5378 241.12 23.4399 241.12 21.9994C241.12 21.0572 241.478 20.2863 242.187 19.679C242.896 19.0794 243.838 18.7758 245.014 18.7758C246.057 18.7758 246.929 18.9548 247.622 19.3208L247.155 20.8158C246.501 20.4654 245.769 20.2864 244.943 20.2864C244.297 20.2864 243.783 20.4499 243.417 20.7613C243.114 21.0494 242.958 21.392 242.958 21.8047C242.958 22.2564 243.137 22.6379 243.487 22.926C243.791 23.1985 244.352 23.4944 245.161 23.8137C246.15 24.2108 246.875 24.678 247.342 25.2152C247.817 25.7525 248.05 26.4222 248.05 27.2164Z" fill="white"/>
<path d="M254.155 23.5333H252.123V27.559C252.123 28.579 252.481 29.0929 253.198 29.0929C253.525 29.0929 253.797 29.0618 254.015 29.0073L254.07 30.4088C253.704 30.5412 253.229 30.6113 252.637 30.6113C251.905 30.6113 251.344 30.3855 250.932 29.9417C250.519 29.4978 250.317 28.7503 250.317 27.7069V23.5255H249.11V22.1473H250.317V20.6289L252.123 20.0839V22.1473H254.155V23.5333Z" fill="white"/>
<path d="M263.297 26.2272C263.297 27.5042 262.931 28.5476 262.207 29.3652C261.444 30.2061 260.432 30.6266 259.17 30.6266C257.955 30.6266 256.982 30.2217 256.258 29.4197C255.534 28.6177 255.176 27.5976 255.176 26.3674C255.176 25.0826 255.549 24.0314 256.289 23.2138C257.037 22.3962 258.041 21.9835 259.302 21.9835C260.517 21.9835 261.498 22.3884 262.238 23.1982C262.947 23.9769 263.297 24.9891 263.297 26.2272ZM261.389 26.2661C261.389 25.503 261.226 24.8568 260.899 24.3117C260.509 23.6498 259.957 23.3228 259.24 23.3228C258.5 23.3228 257.932 23.6498 257.55 24.3117C257.216 24.8568 257.06 25.5186 257.06 26.3051C257.06 27.0681 257.223 27.7222 257.55 28.2595C257.948 28.9213 258.508 29.2484 259.225 29.2484C259.925 29.2484 260.478 28.9136 260.883 28.2439C261.218 27.6833 261.389 27.0292 261.389 26.2661Z" fill="white"/>
<path d="M269.292 23.7666C269.113 23.7355 268.918 23.7199 268.708 23.7199C268.062 23.7199 267.556 23.9613 267.205 24.4518C266.902 24.8801 266.746 25.4329 266.746 26.087V30.4397H264.901V24.7555C264.901 23.7978 264.885 22.9257 264.846 22.147H266.45L266.52 23.7355H266.575C266.769 23.1904 267.073 22.7466 267.494 22.4195C267.906 22.1237 268.35 21.9757 268.825 21.9757C268.996 21.9757 269.152 21.9913 269.284 22.0069L269.292 23.7666Z" fill="white"/>
<path d="M277.53 25.9002C277.53 26.2272 277.507 26.5075 277.46 26.7333H271.932C271.955 27.5509 272.22 28.1816 272.734 28.6099C273.201 28.9914 273.801 29.1861 274.54 29.1861C275.358 29.1861 276.105 29.0537 276.775 28.7968L277.063 30.0738C276.277 30.4164 275.35 30.5877 274.283 30.5877C272.999 30.5877 271.986 30.2061 271.254 29.4509C270.522 28.6956 270.156 27.6755 270.156 26.4063C270.156 25.1605 270.499 24.1171 271.184 23.2839C271.901 22.3962 272.866 21.9524 274.081 21.9524C275.272 21.9524 276.183 22.3962 276.791 23.2839C277.281 24.0003 277.53 24.8646 277.53 25.9002ZM275.771 25.4252C275.786 24.8801 275.662 24.4052 275.412 24.008C275.093 23.4941 274.603 23.2372 273.949 23.2372C273.349 23.2372 272.858 23.4863 272.485 23.9847C272.181 24.3818 271.994 24.8646 271.94 25.4174L275.771 25.4252Z" fill="white"/>
<path d="M214.102 14.8277H213.136L212.607 13.1692H210.769L210.263 14.8277H209.328L211.143 9.17468H212.264L214.102 14.8277ZM212.443 12.4684L211.968 10.989C211.921 10.841 211.828 10.4828 211.68 9.92219H211.664C211.602 10.1636 211.524 10.514 211.392 10.989L210.925 12.4684H212.443Z" fill="white"/>
<path d="M218.648 10.7477L217.107 14.8278H216.227L214.732 10.7477H215.705L216.398 12.9046C216.515 13.2627 216.616 13.6053 216.694 13.9324H216.717C216.787 13.6365 216.889 13.2939 217.013 12.9046L217.698 10.7477H218.648Z" fill="white"/>
<path d="M221.934 14.8277L221.864 14.3605H221.841C221.561 14.7343 221.163 14.9212 220.649 14.9212C219.918 14.9212 219.404 14.4073 219.404 13.722C219.404 12.7176 220.276 12.1959 221.786 12.1959V12.118C221.786 11.5807 221.498 11.316 220.938 11.316C220.533 11.316 220.182 11.4172 219.871 11.6197L219.684 11.0279C220.058 10.7943 220.533 10.6775 221.086 10.6775C222.152 10.6775 222.69 11.2381 222.69 12.3672V13.87C222.69 14.2827 222.705 14.6019 222.752 14.8433L221.934 14.8277ZM221.81 12.7954C220.805 12.7954 220.299 13.0368 220.299 13.6208C220.299 14.0491 220.556 14.2593 220.922 14.2593C221.381 14.2593 221.81 13.9089 221.81 13.4261V12.7954Z" fill="white"/>
<path d="M224.707 10.0779C224.403 10.0779 224.169 9.84434 224.169 9.53288C224.169 9.22142 224.411 8.99561 224.722 8.99561C225.034 8.99561 225.283 9.22142 225.275 9.53288C225.275 9.85991 225.042 10.0779 224.707 10.0779ZM224.271 10.7476H225.174V14.82H224.271V10.7476Z" fill="white"/>
<path d="M226.785 8.87866H227.689V14.8198H226.785V8.87866Z" fill="white"/>
<path d="M231.535 14.8278L231.465 14.3606H231.442C231.162 14.7344 230.764 14.9213 230.25 14.9213C229.519 14.9213 229.005 14.4074 229.005 13.7221C229.005 12.7177 229.877 12.196 231.387 12.196V12.1181C231.387 11.5808 231.099 11.3161 230.539 11.3161C230.134 11.3161 229.783 11.4173 229.472 11.6198L229.285 11.0202C229.659 10.7866 230.134 10.6698 230.687 10.6698C231.753 10.6698 232.291 11.2304 232.291 12.3595V13.8623C232.291 14.275 232.306 14.5942 232.345 14.8356H231.535V14.8278ZM231.411 12.7955C230.406 12.7955 229.9 13.0369 229.9 13.6209C229.9 14.0492 230.157 14.2594 230.523 14.2594C230.982 14.2594 231.411 13.909 231.411 13.4262V12.7955Z" fill="white"/>
<path d="M235.965 14.921C235.389 14.921 234.961 14.6797 234.681 14.1969H234.665L234.611 14.8276H233.84C233.863 14.5006 233.871 14.1346 233.871 13.7297V8.87866H234.782V11.347H234.797C235.07 10.8954 235.498 10.6696 236.098 10.6696C237.079 10.6696 237.764 11.5105 237.764 12.733C237.764 13.9944 237.001 14.921 235.965 14.921ZM235.779 11.3781C235.257 11.3781 234.782 11.8298 234.782 12.4605V13.1768C234.782 13.7375 235.21 14.1969 235.763 14.1969C236.44 14.1969 236.845 13.644 236.845 12.7642C236.845 11.9388 236.425 11.3781 235.779 11.3781Z" fill="white"/>
<path d="M239.104 8.87866H240.007V14.8198H239.104V8.87866Z" fill="white"/>
<path d="M244.936 13.0058H242.218C242.234 13.7767 242.748 14.2128 243.503 14.2128C243.908 14.2128 244.274 14.1427 244.601 14.0181L244.741 14.6488C244.359 14.8201 243.908 14.898 243.378 14.898C242.101 14.898 241.346 14.096 241.346 12.8423C241.346 11.5965 242.117 10.6543 243.277 10.6543C244.313 10.6543 244.975 11.4252 244.975 12.5932C244.975 12.7567 244.967 12.8968 244.936 13.0058ZM244.11 12.3596C244.11 11.7288 243.791 11.285 243.215 11.285C242.693 11.285 242.288 11.7366 242.226 12.3596H244.11Z" fill="white"/>
<path d="M250.425 14.9213C249.234 14.9213 248.463 14.0336 248.463 12.8267C248.463 11.5653 249.249 10.6698 250.495 10.6698C251.671 10.6698 252.457 11.5185 252.457 12.7566C252.457 14.0258 251.648 14.9213 250.425 14.9213ZM250.464 11.3317C249.81 11.3317 249.39 11.9468 249.39 12.7955C249.39 13.6365 249.818 14.2438 250.456 14.2438C251.095 14.2438 251.523 13.5898 251.523 12.7722C251.515 11.9468 251.103 11.3317 250.464 11.3317Z" fill="white"/>
<path d="M257.324 14.8278H256.421V12.484C256.421 11.7599 256.141 11.4017 255.596 11.4017C255.058 11.4017 254.692 11.8611 254.692 12.3984V14.82H253.789V11.9156C253.789 11.5574 253.781 11.1681 253.758 10.7476H254.552L254.591 11.3784H254.614C254.856 10.9423 255.354 10.662 255.907 10.662C256.763 10.662 257.324 11.3161 257.324 12.3828V14.8278Z" fill="white"/>
<path d="M263.25 11.4328H262.253V13.4106C262.253 13.9167 262.432 14.1659 262.783 14.1659C262.938 14.1659 263.078 14.1503 263.187 14.127L263.211 14.8122C263.032 14.8823 262.798 14.9134 262.51 14.9134C261.794 14.9134 261.373 14.5163 261.373 13.4885V11.4328H260.781V10.7554H261.373V10.0079L262.261 9.73535V10.7476H263.257V11.4328" fill="white"/>
<path d="M268.047 14.8276H267.143V12.4994C267.143 11.7675 266.863 11.4015 266.318 11.4015C265.851 11.4015 265.415 11.7208 265.415 12.367V14.8198H264.511V8.87866H265.415V11.3236H265.43C265.718 10.8798 266.123 10.6618 266.653 10.6618C267.517 10.6618 268.047 11.3314 268.047 12.3982V14.8276Z" fill="white"/>
<path d="M272.672 13.0058H269.954C269.97 13.7767 270.484 14.2128 271.239 14.2128C271.644 14.2128 272.01 14.1427 272.337 14.0181L272.477 14.6488C272.096 14.8201 271.644 14.898 271.115 14.898C269.838 14.898 269.082 14.096 269.082 12.8423C269.082 11.5965 269.853 10.6543 271.013 10.6543C272.049 10.6543 272.711 11.4252 272.711 12.5932C272.711 12.7567 272.703 12.8968 272.672 13.0058ZM271.847 12.3596C271.847 11.7288 271.527 11.285 270.951 11.285C270.429 11.285 270.017 11.7366 269.962 12.3596H271.847Z" fill="white"/>
<defs>
<linearGradient id="paint0_linear_44_1194" x1="18.5305" y1="8.98654" x2="7.53169" y2="20.0031" gradientUnits="userSpaceOnUse">
<stop stop-color="#00A0FF"/>
<stop offset="0.00657" stop-color="#00A1FF"/>
<stop offset="0.2601" stop-color="#00BEFF"/>
<stop offset="0.5122" stop-color="#00D2FF"/>
<stop offset="0.7604" stop-color="#00DFFF"/>
<stop offset="1" stop-color="#00E3FF"/>
</linearGradient>
<linearGradient id="paint1_linear_44_1194" x1="34.9542" y1="20.563" x2="10.0284" y2="20.563" gradientUnits="userSpaceOnUse">
<stop stop-color="#FFE000"/>
<stop offset="0.4087" stop-color="#FFBD00"/>
<stop offset="0.7754" stop-color="#FFA500"/>
<stop offset="1" stop-color="#FF9C00"/>
</linearGradient>
<linearGradient id="paint2_linear_44_1194" x1="25.6855" y1="24.6891" x2="7.0471" y2="43.2211" gradientUnits="userSpaceOnUse">
<stop stop-color="#FF3A44"/>
<stop offset="1" stop-color="#C31162"/>
</linearGradient>
<linearGradient id="paint3_linear_44_1194" x1="7.637" y1="5.95797" x2="15.9437" y2="14.23" gradientUnits="userSpaceOnUse">
<stop stop-color="#32A071"/>
<stop offset="0.0685" stop-color="#2DA771"/>
<stop offset="0.4762" stop-color="#15CF74"/>
<stop offset="0.8009" stop-color="#06E775"/>
<stop offset="1" stop-color="#00F076"/>
</linearGradient>
<linearGradient id="paint4_linear_44_1194" x1="25.6759" y1="27.6461" x2="10.7494" y2="42.5967" gradientUnits="userSpaceOnUse">
<stop stop-color="#CC2E36"/>
<stop offset="1" stop-color="#9C0E4E"/>
</linearGradient>
<linearGradient id="paint5_linear_44_1194" x1="12.0744" y1="8.98644" x2="2.3846" y2="18.692" gradientUnits="userSpaceOnUse">
<stop stop-color="#008DE0"/>
<stop offset="0.00657" stop-color="#008DE0"/>
<stop offset="0.2601" stop-color="#00A7E0"/>
<stop offset="0.5122" stop-color="#00B8E0"/>
<stop offset="0.7604" stop-color="#00C4E0"/>
<stop offset="1" stop-color="#00C7E0"/>
</linearGradient>
<linearGradient id="paint6_linear_44_1194" x1="34.9542" y1="20.6371" x2="10.0284" y2="20.6371" gradientUnits="userSpaceOnUse">
<stop stop-color="#E0C500"/>
<stop offset="0.4087" stop-color="#E0A600"/>
<stop offset="0.7754" stop-color="#E09100"/>
<stop offset="1" stop-color="#E08900"/>
</linearGradient>
<linearGradient id="paint7_linear_44_1194" x1="34.9541" y1="20.6371" x2="10.0283" y2="20.6371" gradientUnits="userSpaceOnUse">
<stop stop-color="#FFE840"/>
<stop offset="0.4087" stop-color="#FFCE40"/>
<stop offset="0.7754" stop-color="#FFBC40"/>
<stop offset="1" stop-color="#FFB540"/>
</linearGradient>
<linearGradient id="paint8_linear_44_1194" x1="12.0639" y1="9.00407" x2="2.7309" y2="17.9472" gradientUnits="userSpaceOnUse">
<stop stop-color="#40B8FF"/>
<stop offset="0.00657" stop-color="#40B9FF"/>
<stop offset="0.2601" stop-color="#40CEFF"/>
<stop offset="0.5122" stop-color="#40DDFF"/>
<stop offset="0.7604" stop-color="#40E7FF"/>
<stop offset="1" stop-color="#40EAFF"/>
</linearGradient>
<linearGradient id="paint9_linear_44_1194" x1="7.61798" y1="8.6617" x2="14.2833" y2="15.3379" gradientUnits="userSpaceOnUse">
<stop stop-color="#65B895"/>
<stop offset="0.0685" stop-color="#62BD95"/>
<stop offset="0.4762" stop-color="#50DB97"/>
<stop offset="0.8009" stop-color="#44ED98"/>
<stop offset="1" stop-color="#40F498"/>
</linearGradient>
</defs>
</svg>
